<?xml version="1.0" encoding="UTF-8"?>
<svg xmlns="http://www.w3.org/2000/svg" style="display:none">
  <symbol id="icon-gear" viewBox="0 0 24 24">
    <path fill="none" stroke="currentColor" stroke-width="2" stroke-linecap="round" stroke-linejoin="round"
      d="M12 15.5a3.5 3.5 0 1 0 0-7 3.5 3.5 0 0 0 0 7Z"/>
    <path fill="none" stroke="currentColor" stroke-width="2" stroke-linecap="round" stroke-linejoin="round"
      d="M19.4 15a7.9 7.9 0 0 0 .1-1l2-1.5-2-3.5-2.4 1a7.6 7.6 0 0 0-1.7-1L15 4h-6l-.4 2.9a7.6 7.6 0 0 0-1.7 1l-2.4-1-2 3.5 2 1.5a7.9 7.9 0 0 0 0 2l-2 1.5 2 3.5 2.4-1a7.6 7.6 0 0 0 1.7 1L9 20h6l.4-2.9a7.6 7.6 0 0 0 1.7-1l2.4 1 2-3.5-2-1.5Z"/>
  </symbol>
</svg>
